<?xml version="1.0" encoding="UTF-8"?><svg id="Layer_1" xmlns="http://www.w3.org/2000/svg" viewBox="0 0 255.83 216.21"><defs><style>.cls-1{fill:#fff;}.cls-2{fill:#231f20;}.cls-3{fill:#facd18;stroke:#facd18;}.cls-3,.cls-4{stroke-miterlimit:10;}.cls-4{fill:none;stroke:#231f20;stroke-width:8px;}</style></defs><circle class="cls-3" cx="127.67" cy="108.13" r="78.53"/><g id="g66" transform="translate(5,4.9997397)"><path id="path64" class="cls-1" d="M170.86,78.61c1.72,1.22,9.55-15.95,10.39-16.6,1.45-1.95-4.6-5.87-5.34-7.17-.56-.56-1.43-.69-2.13-.3l-15.69,8.7c-1.84,.69-.31,6.06-.52,7.39l-26.93,26.92-15.19-15.19c6.01-15.78-10.69-32.78-26.59-26.95-.91,.31-1.44,1.33-1.14,2.25,1.25,2.61,10.12,8.51,9.83,11.79,.16,2.42-5.77,8.33-8.18,8.18-3.27,.3-9.2-8.6-11.79-9.83-.92-.3-1.95,.23-2.25,1.14-5.84,15.9,11.22,32.64,26.94,26.58l10.22,10.22c-3.85-2.99-33.93,31.85-36.82,33.41-7.24,6.85,8.68,16.3,11.95,20.94,2.37,2.46,6.62,2.46,8.99,0,1.7-3.02,36.27-32.83,33.41-36.82l10.21,10.21c-6.62,15.79,12.87,34.9,27.7,25.88,1.26-1.66-7.98-8.93-8.6-10.09-3.69-3.55,1.83-7.5,4.11-9.87,1.59-1.58,4.17-1.58,5.76,0,1.29,.67,8.43,10.08,10.25,8.52,8.56-15.13-10.22-34.12-26.03-27.62l-15.19-15.19,26.92-26.92,5.71,.4Z"/></g><g><path class="cls-4" d="M27.54,95.81C32.01,44.68,75.46,4,127.67,4c55.13,0,100.5,45.37,100.51,100.51"/><polygon class="cls-2" points="64.71 74.51 59.72 68.25 28.9 92.87 6.6 60.32 0 64.85 27.16 104.48 64.71 74.51"/></g><g><path class="cls-4" d="M228.29,120.4c-4.47,51.13-47.93,91.81-100.13,91.81-55.13,0-100.5-45.37-100.51-100.51"/><polygon class="cls-2" points="191.12 141.7 196.11 147.96 226.93 123.35 249.23 155.89 255.83 151.36 228.67 111.73 191.12 141.7"/></g></svg>